<svg width="433" height="263" viewBox="0 0 433 263" fill="none" xmlns="http://www.w3.org/2000/svg">
<g opacity="0.7">
<path opacity="0.15" d="M-9.19922 243.999L-0.789845 251.207L53.0988 237.649M4.01552 236.963L41.0854 240.738L20.6626 255.841" stroke="white" stroke-width="2.5658" stroke-miterlimit="10" stroke-linecap="round" stroke-linejoin="round"/>
</g>
<g opacity="0.7">
<path opacity="0.15" d="M114.527 9.14378L122.936 16.3518L176.825 2.96545" stroke="white" stroke-width="2.5658" stroke-miterlimit="10" stroke-linecap="round" stroke-linejoin="round"/>
<path opacity="0.15" d="M127.741 2.10741L164.811 5.88301L144.389 21.1572" stroke="white" stroke-width="2.5658" stroke-miterlimit="10" stroke-linecap="round" stroke-linejoin="round"/>
</g>
<g opacity="0.7">
<path opacity="0.15" d="M359.675 13.3218L368.256 20.5298L422.145 6.97182M373.062 6.28523L410.132 10.0609L389.709 25.1634" stroke="white" stroke-width="2.5658" stroke-miterlimit="10" stroke-linecap="round" stroke-linejoin="round"/>
</g>
<g opacity="0.7">
<path opacity="0.15" d="M22 149.701L30.581 156.909L84.4697 143.351M35.3863 142.664L72.4563 146.44L52.0335 161.714" stroke="white" stroke-width="2.5658" stroke-miterlimit="10" stroke-linecap="round" stroke-linejoin="round"/>
</g>
<g opacity="0.7">
<path opacity="0.15" d="M288.891 76.9336L297.472 84.1416L351.189 70.5836M302.105 69.8971L339.175 73.6727L318.752 88.7753" stroke="white" stroke-width="2.5658" stroke-miterlimit="10" stroke-linecap="round" stroke-linejoin="round"/>
</g>
<g opacity="0.7">
<path opacity="0.15" d="M289.406 255.247L297.987 262.455L351.876 249.068M302.793 248.382L339.863 252.158L319.44 267.26" stroke="white" stroke-width="2.5658" stroke-miterlimit="10" stroke-linecap="round" stroke-linejoin="round"/>
</g>
<g opacity="0.7">
<path opacity="0.15" d="M369.23 196.21L377.811 203.418L431.7 190.031M382.617 189.173L419.515 192.949L399.264 208.223" stroke="white" stroke-width="2.5658" stroke-miterlimit="10" stroke-linecap="round" stroke-linejoin="round"/>
</g>
</svg>
